<?xml version="1.0" encoding="UTF-8" standalone="no"?>
<svg
   xmlns:dc="http://purl.org/dc/elements/1.1/"
   xmlns:cc="http://creativecommons.org/ns#"
   xmlns:rdf="http://www.w3.org/1999/02/22-rdf-syntax-ns#"
   xmlns:svg="http://www.w3.org/2000/svg"
   xmlns="http://www.w3.org/2000/svg"
   xmlns:sodipodi="http://sodipodi.sourceforge.net/DTD/sodipodi-0.dtd"
   xmlns:inkscape="http://www.inkscape.org/namespaces/inkscape"
   inkscape:version="1.0 (4035a4fb49, 2020-05-01)"
   sodipodi:docname="archlinux.svg"
   id="svg6"
   version="1.1"
   viewBox="0 0 24 24"
   role="img">
  <metadata
     id="metadata12">
    <rdf:RDF>
      <cc:Work
         rdf:about="">
        <dc:format>image/svg+xml</dc:format>
        <dc:type
           rdf:resource="http://purl.org/dc/dcmitype/StillImage" />
        <dc:title>Arch Linux icon</dc:title>
      </cc:Work>
    </rdf:RDF>
  </metadata>
  <defs
     id="defs10" />
  <sodipodi:namedview
     inkscape:current-layer="svg6"
     inkscape:window-maximized="1"
     inkscape:window-y="0"
     inkscape:window-x="0"
     inkscape:cy="11.965562"
     inkscape:cx="10.037029"
     inkscape:zoom="25.51477"
     showgrid="false"
     id="namedview8"
     inkscape:window-height="1054"
     inkscape:window-width="1920"
     inkscape:pageshadow="2"
     inkscape:pageopacity="0"
     guidetolerance="10"
     gridtolerance="10"
     objecttolerance="10"
     borderopacity="1"
     bordercolor="#666666"
     pagecolor="#ffffff" />
  <title
     id="title2">Arch Linux icon</title>
  <path
     style="fill-opacity:1;fill:#1793d1"
     id="path4"
     d="M11.390232.60509C10.375655 3.09168 9.764285 4.7185 8.63513 7.13162c.692712.734695 1.542857 1.589214 2.923032 2.553937-1.484256-.610496-2.49621-1.223615-3.25277-1.859475-1.444897 3.015743-3.710204 7.311953-8.30554 15.568513 3.612246-2.08513 6.411955-3.36997 9.020993-3.861516-.111954-.48105-.175802-1.003208-.17143-1.54723l.0035-.115453c.057725-2.314286 1.261224-4.09417 2.68688-3.972595 1.425656.119825 2.53382 2.095627 2.477843 4.409038-.010496.43557-.06035.85452-.146064 1.242857 2.58105.504665 5.351895 1.78688 8.914286 3.844024-.702333-1.29271-1.329447-2.4586-1.928572-3.569387-.943732-.731196-1.926822-1.6828-3.933236-2.71312 1.3793.3586 2.366764.77143 3.136443 1.23411C13.970407 7.010922 13.478862 5.503924 11.390232.60509zM22.897813 21.360193v-.623615h-.233528v-.083965h.561516v.083965h-.2344v.623615h-.093587M23.322886 21.360193v-.70758h.14169l.167056.501166c.015744.04723.027114.082215.03411.10583.007873-.025365.020118-.06385.038485-.113703l.168805-.493294h.126822v.70758h-.090962v-.593003l-.206414.593003h-.083965l-.204665-.602624v.602623h-.090962" />
</svg>
