<?xml version="1.0" encoding="UTF-8" standalone="no"?>
<svg
   xmlns:dc="http://purl.org/dc/elements/1.1/"
   xmlns:cc="http://creativecommons.org/ns#"
   xmlns:rdf="http://www.w3.org/1999/02/22-rdf-syntax-ns#"
   xmlns:svg="http://www.w3.org/2000/svg"
   xmlns="http://www.w3.org/2000/svg"
   xmlns:xlink="http://www.w3.org/1999/xlink"
   xmlns:sodipodi="http://sodipodi.sourceforge.net/DTD/sodipodi-0.dtd"
   xmlns:inkscape="http://www.inkscape.org/namespaces/inkscape"
   width="11.330247"
   height="14"
   id="svg3832"
   version="1.1"
   inkscape:version="1.0 (4035a4fb49, 2020-05-01)"
   sodipodi:docname="logo-14px.svg">
  <defs
     id="defs3834">
    <linearGradient
       id="linearGradient3308-4-6-931-761-0">
      <stop
         id="stop2919-2"
         style="stop-color:#ffffff;stop-opacity:1"
         offset="0" />
      <stop
         id="stop2921-76"
         style="stop-color:#ffffff;stop-opacity:0"
         offset="1" />
    </linearGradient>
    <linearGradient
       id="linearGradient4222">
      <stop
         id="stop4224"
         style="stop-color:#ffffff;stop-opacity:1"
         offset="0" />
      <stop
         id="stop4226"
         style="stop-color:#ffffff;stop-opacity:0"
         offset="1" />
    </linearGradient>
    <linearGradient
       inkscape:collect="always"
       xlink:href="#linearGradient3308-4-6-931-761"
       id="linearGradient2982"
       gradientUnits="userSpaceOnUse"
       gradientTransform="translate(0,0.9999987)"
       x1="41.383263"
       y1="8.1536055"
       x2="23.99999"
       y2="43" />
    <linearGradient
       id="linearGradient3308-4-6-931-761">
      <stop
         id="stop2919"
         style="stop-color:#ffffff;stop-opacity:0"
         offset="0" />
      <stop
         id="stop2921"
         style="stop-color:#ffffff;stop-opacity:0"
         offset="1" />
    </linearGradient>
    <linearGradient
       id="linearGradient3575">
      <stop
         id="stop3577"
         style="stop-color:#fafafa;stop-opacity:1"
         offset="0" />
      <stop
         id="stop3579"
         style="stop-color:#e6e6e6;stop-opacity:1"
         offset="1" />
    </linearGradient>
    <linearGradient
       id="linearGradient3993">
      <stop
         offset="0"
         style="stop-color:#a3c0d0;stop-opacity:1"
         id="stop3995" />
      <stop
         offset="1"
         style="stop-color:#427da1;stop-opacity:1"
         id="stop4001" />
    </linearGradient>
    <linearGradient
       id="linearGradient2508">
      <stop
         offset="0"
         style="stop-color:#2e4a5a;stop-opacity:1"
         id="stop2510" />
      <stop
         offset="1"
         style="stop-color:#6e8796;stop-opacity:1"
         id="stop2512" />
    </linearGradient>
    <radialGradient
       cx="4.9929786"
       cy="43.5"
       r="2.5"
       fx="4.9929786"
       fy="43.5"
       id="radialGradient2873-966-168"
       xlink:href="#linearGradient3688-166-749"
       gradientUnits="userSpaceOnUse"
       gradientTransform="matrix(2.003784,0,0,1.4,27.98813,-17.4)" />
    <linearGradient
       id="linearGradient3688-166-749">
      <stop
         id="stop2883"
         style="stop-color:#181818;stop-opacity:1"
         offset="0" />
      <stop
         id="stop2885"
         style="stop-color:#181818;stop-opacity:0"
         offset="1" />
    </linearGradient>
    <radialGradient
       cx="4.9929786"
       cy="43.5"
       r="2.5"
       fx="4.9929786"
       fy="43.5"
       id="radialGradient2875-742-326"
       xlink:href="#linearGradient3688-464-309"
       gradientUnits="userSpaceOnUse"
       gradientTransform="matrix(2.003784,0,0,1.4,-20.01187,-104.4)" />
    <linearGradient
       id="linearGradient3688-464-309">
      <stop
         id="stop2889"
         style="stop-color:#181818;stop-opacity:1"
         offset="0" />
      <stop
         id="stop2891"
         style="stop-color:#181818;stop-opacity:0"
         offset="1" />
    </linearGradient>
    <linearGradient
       x1="25.058096"
       y1="47.027729"
       x2="25.058096"
       y2="39.999443"
       id="linearGradient2877-634-617"
       xlink:href="#linearGradient3702-501-757"
       gradientUnits="userSpaceOnUse" />
    <linearGradient
       id="linearGradient3702-501-757">
      <stop
         id="stop2895"
         style="stop-color:#181818;stop-opacity:0"
         offset="0" />
      <stop
         id="stop2897"
         style="stop-color:#181818;stop-opacity:1"
         offset="0.5" />
      <stop
         id="stop2899"
         style="stop-color:#181818;stop-opacity:0"
         offset="1" />
    </linearGradient>
  </defs>
  <sodipodi:namedview
     fit-margin-bottom="0"
     fit-margin-right="0"
     fit-margin-left="0"
     fit-margin-top="0"
     id="base"
     pagecolor="#ffffff"
     bordercolor="#666666"
     borderopacity="1.0"
     inkscape:pageopacity="0.0"
     inkscape:pageshadow="2"
     inkscape:zoom="8"
     inkscape:cx="-17.02034"
     inkscape:cy="18.510319"
     inkscape:current-layer="g1631"
     showgrid="true"
     inkscape:grid-bbox="true"
     inkscape:document-units="px"
     inkscape:window-width="1920"
     inkscape:window-height="1054"
     inkscape:window-x="0"
     inkscape:window-y="0"
     inkscape:window-maximized="1"
     inkscape:document-rotation="0" />
  <metadata
     id="metadata3837">
    <rdf:RDF>
      <cc:Work
         rdf:about="">
        <dc:format>image/svg+xml</dc:format>
        <dc:type
           rdf:resource="http://purl.org/dc/dcmitype/StillImage" />
        <dc:title></dc:title>
      </cc:Work>
    </rdf:RDF>
  </metadata>
  <g
     transform="translate(-0.32961265,-0.36594008)"
     id="layer1"
     inkscape:label="Layer 1"
     inkscape:groupmode="layer">
    <g
       transform="matrix(0.35893508,0,0,0.35893508,-2.6197059,-1.5962851)"
       id="g1631">
      <path
         sodipodi:nodetypes="sccssssss"
         d="m 10.949717,5.4674392 h 21.917026 l 6.916399,6.8489628 V 41.73458 c 0,1.514004 -1.218855,2.732859 -2.732859,2.732859 H 10.949717 c -1.5140039,0 -2.7328591,-1.218855 -2.7328591,-2.732859 V 8.2002983 c 0,-1.514004 1.2188552,-2.7328591 2.7328591,-2.7328591 z"
         style="fill:#0065dc;fill-opacity:1;stroke:none;stroke-width:0.899662;stroke-linecap:round;stroke-linejoin:round;stroke-miterlimit:4;stroke-dasharray:none;stroke-dashoffset:0;stroke-opacity:1"
         id="rect5505" />
      <path
         sodipodi:nodetypes="cccccccc"
         d="M 21,8.9999996 V 15 H 17.8125 L 24,22 30.1875,15 H 27 V 8.9999996 Z"
         id="path2317"
         style="display:inline;overflow:visible;visibility:visible;fill:#e6e6e6;fill-opacity:1;fill-rule:nonzero;stroke:none;stroke-width:1.00179;marker:none;enable-background:accumulate" />
      <path
         d="m 23.4375,23.46875 c -0.01166,0.05381 -0.03125,0.100205 -0.03125,0.1875 v 2.28125 a 0.48185467,0.48185467 0 0 1 -0.375,0.46875 c -0.638467,0.145384 -1.238423,0.407111 -1.78125,0.75 a 0.48185467,0.48185467 0 0 1 -0.59375,-0.0625 l -1.625,-1.625 C 18.9779,25.4154 18.9477,25.40242 18.90625,25.375 l -1.21875,1.21875 c 0.02742,0.04145 0.0404,0.07165 0.09375,0.125 l 1.625,1.625 a 0.48185467,0.48185467 0 0 1 0.0625,0.59375 c -0.342888,0.542826 -0.604615,1.142782 -0.75,1.78125 a 0.48185467,0.48185467 0 0 1 -0.46875,0.375 h -2.28125 c -0.08729,0 -0.133695,0.01959 -0.1875,0.03125 v 1.75 c 0.05381,0.01166 0.100205,0.03125 0.1875,0.03125 H 18.25 a 0.48185467,0.48185467 0 0 1 0.46875,0.375 c 0.145385,0.638468 0.407112,1.238423 0.75,1.78125 a 0.48185467,0.48185467 0 0 1 -0.0625,0.59375 l -1.625,1.625 c -0.05335,0.05335 -0.06633,0.08355 -0.09375,0.125 l 1.21875,1.21875 c 0.04145,-0.02742 0.07165,-0.0404 0.125,-0.09375 l 1.625,-1.625 A 0.48185467,0.48185467 0 0 1 21.25,36.84375 c 0.542827,0.342888 1.142781,0.604614 1.78125,0.75 a 0.48185467,0.48185467 0 0 1 0.375,0.46875 v 2.28125 c 0,0.08729 0.01959,0.133695 0.03125,0.1875 h 1.75 c 0.01166,-0.0538 0.03125,-0.100206 0.03125,-0.1875 V 38.0625 a 0.48185467,0.48185467 0 0 1 0.375,-0.46875 c 0.638469,-0.145386 1.238423,-0.407112 1.78125,-0.75 a 0.48185467,0.48185467 0 0 1 0.59375,0.0625 l 1.625,1.625 c 0.05335,0.05335 0.08355,0.06633 0.125,0.09375 l 1.21875,-1.21875 c -0.02742,-0.04145 -0.0404,-0.07165 -0.09375,-0.125 l -1.625,-1.625 a 0.48185467,0.48185467 0 0 1 -0.0625,-0.59375 c 0.342888,-0.542828 0.604615,-1.142783 0.75,-1.78125 a 0.48185467,0.48185467 0 0 1 0.46875,-0.375 h 2.28125 c 0.08729,0 0.133695,-0.01959 0.1875,-0.03125 v -1.75 c -0.0538,-0.01166 -0.100204,-0.03125 -0.1875,-0.03125 H 30.375 a 0.48185467,0.48185467 0 0 1 -0.46875,-0.375 c -0.145385,-0.638467 -0.407113,-1.238424 -0.75,-1.78125 a 0.48185467,0.48185467 0 0 1 0.0625,-0.59375 l 1.625,-1.625 c 0.05335,-0.05335 0.06633,-0.08355 0.09375,-0.125 L 29.71875,25.375 c -0.04145,0.02742 -0.07165,0.0404 -0.125,0.09375 l -1.625,1.625 a 0.48185467,0.48185467 0 0 1 -0.59375,0.0625 c -0.542827,-0.342889 -1.142783,-0.604616 -1.78125,-0.75 a 0.48185467,0.48185467 0 0 1 -0.375,-0.46875 v -2.28125 c 0,-0.0873 -0.01959,-0.133695 -0.03125,-0.1875 z m 0.875,5.28125 c 1.791829,0 3.25,1.458172 3.25,3.25 0,1.791828 -1.458171,3.25 -3.25,3.25 -1.791827,0 -3.25,-1.458172 -3.25,-3.25 0,-1.791828 1.458173,-3.25 3.25,-3.25 z"
         id="path4243"
         style="display:inline;overflow:visible;visibility:visible;fill:none;stroke:none;stroke-width:1;stroke-opacity:1;marker:none;enable-background:accumulate" />
      <rect
         ry="0"
         rx="0"
         y="31.125"
         x="15.547095"
         height="13.346065"
         width="17.081121"
         id="rect957"
         style="fill:#005ac5;fill-opacity:1;stroke:none;stroke-width:6.98726;stroke-linecap:round;stroke-opacity:1" />
      <circle
         r="3.5076189"
         cy="32.11544"
         cx="24.19599"
         id="path959"
         style="fill:#0065dc;fill-opacity:1;stroke:none;stroke-width:6.93921;stroke-linecap:round;stroke-opacity:1" />
      <path
         id="path955"
         d="m 22.562675,40.416855 c -0.09997,-0.100826 -0.114932,-0.165651 -0.254022,-1.10058 -0.08129,-0.546394 -0.156556,-1.032091 -0.167264,-1.079326 -0.01283,-0.05661 -0.06798,-0.101639 -0.161785,-0.132112 -0.07827,-0.02543 -0.304053,-0.115249 -0.50173,-0.199605 l -0.359414,-0.153376 -0.789864,0.600351 c -0.434426,0.330192 -0.831156,0.622431 -0.881624,0.64942 -0.190458,0.101852 -0.322011,0.02783 -0.889583,-0.500579 -0.616673,-0.574119 -0.9222,-0.88608 -1.233857,-1.259842 -0.193371,-0.231905 -0.219712,-0.283936 -0.219712,-0.433998 0,-0.191555 0.01002,-0.206876 0.788178,-1.204925 l 0.450518,-0.577826 -0.146215,-0.318221 c -0.08042,-0.175021 -0.1772,-0.414644 -0.215071,-0.532493 -0.03787,-0.11785 -0.08055,-0.227244 -0.09484,-0.243097 -0.01429,-0.01586 -0.4931,-0.09826 -1.064019,-0.18313 -0.570919,-0.08487 -1.072999,-0.176139 -1.115732,-0.202826 -0.151462,-0.09459 -0.16116,-0.189419 -0.16116,-1.575874 0,-1.41961 0.01166,-1.520886 0.183613,-1.594362 0.03829,-0.01636 0.540464,-0.10176 1.115942,-0.189774 l 1.046324,-0.160026 0.09488,-0.25323 c 0.05218,-0.139277 0.149445,-0.371845 0.216141,-0.516817 l 0.121265,-0.263587 -0.140917,-0.203916 c -0.0775,-0.112155 -0.360753,-0.481462 -0.629442,-0.820684 -0.268689,-0.339222 -0.498239,-0.655471 -0.510111,-0.702775 -0.03031,-0.120754 0.02564,-0.245882 0.220303,-0.49268 0.251627,-0.319026 1.184478,-1.262362 1.49848,-1.515324 0.341005,-0.274715 0.480887,-0.337575 0.633115,-0.284508 0.06158,0.02147 0.468152,0.315421 0.903492,0.65323 0.741214,0.575157 0.79794,0.611481 0.892418,0.571461 0.05549,-0.02351 0.286435,-0.118327 0.513212,-0.210716 l 0.41232,-0.16798 0.06797,-0.525941 c 0.07802,-0.603708 0.198933,-1.321868 0.25522,-1.515883 0.0212,-0.07307 0.07708,-0.173875 0.124182,-0.224012 l 0.08564,-0.09116 h 1.418194 1.418194 l 0.106228,0.107136 c 0.09997,0.100826 0.114932,0.165651 0.254022,1.10058 0.08129,0.546394 0.156556,1.032091 0.167264,1.079326 0.01283,0.05661 0.06798,0.101639 0.161785,0.132112 0.07827,0.02543 0.303112,0.114845 0.49964,0.198709 l 0.357323,0.152479 0.861482,-0.644958 c 0.916644,-0.686255 0.966655,-0.710318 1.189931,-0.572551 0.16852,0.103982 1.491001,1.417388 1.749009,1.737008 0.189017,0.234152 0.218399,0.292968 0.218399,0.437187 0,0.180455 0.02521,0.142797 -0.865492,1.292863 l -0.372692,0.481217 0.11821,0.258996 c 0.06502,0.142448 0.166399,0.390482 0.225295,0.551186 l 0.107085,0.292189 1.028835,0.16048 c 0.56586,0.08826 1.067591,0.17278 1.114958,0.187814 0.190823,0.06057 0.202144,0.150149 0.202144,1.599635 0,1.423738 -0.0118,1.526397 -0.183612,1.596982 -0.03829,0.01573 -0.542438,0.101186 -1.120328,0.1899 l -1.050709,0.161299 -0.07126,0.194667 c -0.03919,0.107066 -0.134548,0.330588 -0.211904,0.496714 -0.115908,0.248919 -0.133308,0.317446 -0.09892,0.389586 0.03388,0.07107 0.512368,0.692 1.122932,1.457206 0.05398,0.06765 0.10772,0.182045 0.119432,0.254218 0.01819,0.112115 -0.0049,0.166021 -0.158317,0.370163 -0.414497,0.551403 -1.583824,1.685872 -1.908286,1.8514 -0.129876,0.06626 -0.174733,0.07165 -0.292827,0.03521 -0.0767,-0.02367 -0.488288,-0.317684 -0.914636,-0.653366 -0.728674,-0.573717 -0.781261,-0.607743 -0.876568,-0.567176 -0.05576,0.02374 -0.28819,0.118643 -0.516502,0.210905 l -0.415114,0.167749 -0.04466,0.370106 c -0.06054,0.501668 -0.224589,1.505654 -0.275027,1.683186 -0.02255,0.07938 -0.08659,0.180184 -0.142311,0.224012 -0.09779,0.07692 -0.14992,0.07969 -1.50156,0.07969 h -1.400252 z m 2.128187,-5.642474 c 1.064637,-0.219907 1.948955,-1.104225 2.168862,-2.168862 0.37351,-1.80828 -0.953621,-3.457433 -2.782319,-3.457433 -1.589578,0 -2.843976,1.254398 -2.843976,2.843977 0,1.138402 0.64736,2.138169 1.690851,2.611311 0.494784,0.224345 1.184924,0.291152 1.766582,0.171007 z"
         style="fill:#efefef;fill-opacity:1;stroke-width:0.0389586" />
      <path
         sodipodi:nodetypes="cccsscccccc"
         d="m 32.847656,5.4667969 -0.002,3.7382812 0.002,0.00195 v 0.6132813 c 0,1.3722226 1.10434,2.4765626 2.476563,2.4765626 h 0.613281 1.347656 2.478516 L 39.033203,11.576169 33.578125,6.1875 Z"
         style="fill:#0091dc;fill-opacity:1;stroke:none;stroke-width:0.174292;stroke-linecap:round;stroke-linejoin:round;stroke-miterlimit:4;stroke-dasharray:none;stroke-dashoffset:0;stroke-opacity:1"
         id="rect5505-6" />
    </g>
  </g>
</svg>
