<?xml version="1.0" encoding="UTF-8" standalone="no"?>
<svg
   xmlns:dc="http://purl.org/dc/elements/1.1/"
   xmlns:cc="http://creativecommons.org/ns#"
   xmlns:rdf="http://www.w3.org/1999/02/22-rdf-syntax-ns#"
   xmlns:svg="http://www.w3.org/2000/svg"
   xmlns="http://www.w3.org/2000/svg"
   xmlns:sodipodi="http://sodipodi.sourceforge.net/DTD/sodipodi-0.dtd"
   xmlns:inkscape="http://www.inkscape.org/namespaces/inkscape"
   inkscape:version="1.0 (4035a4fb49, 2020-05-01)"
   sodipodi:docname="ubuntu.svg"
   id="svg6"
   version="1.1"
   viewBox="0 0 24 24"
   role="img">
  <metadata
     id="metadata12">
    <rdf:RDF>
      <cc:Work
         rdf:about="">
        <dc:format>image/svg+xml</dc:format>
        <dc:type
           rdf:resource="http://purl.org/dc/dcmitype/StillImage" />
        <dc:title>Ubuntu icon</dc:title>
      </cc:Work>
    </rdf:RDF>
  </metadata>
  <defs
     id="defs10" />
  <sodipodi:namedview
     inkscape:current-layer="svg6"
     inkscape:window-maximized="1"
     inkscape:window-y="0"
     inkscape:window-x="0"
     inkscape:cy="12"
     inkscape:cx="12"
     inkscape:zoom="36.083333"
     showgrid="false"
     id="namedview8"
     inkscape:window-height="1054"
     inkscape:window-width="1920"
     inkscape:pageshadow="2"
     inkscape:pageopacity="0"
     guidetolerance="10"
     gridtolerance="10"
     objecttolerance="10"
     borderopacity="1"
     bordercolor="#666666"
     pagecolor="#ffffff" />
  <title
     id="title2">Ubuntu icon</title>
  <path
     style="fill:#e95420;fill-opacity:1"
     id="path4"
     d="M12 0c6.623 0 12 5.377 12 12s-5.377 12-12 12S0 18.623 0 12 5.377 0 12 0zm3.279 17.68c-.766.441-1.029 1.422-.586 2.189.441.765 1.422 1.028 2.188.584.766-.441 1.029-1.422.585-2.189-.441-.765-1.421-1.028-2.187-.584zm-3.279-1c-.705 0-1.373-.157-1.971-.435L8.916 18.24c.93.459 1.978.721 3.084.721.646 0 1.268-.091 1.86-.256.104-.643.485-1.234 1.095-1.587.609-.351 1.313-.386 1.92-.156 1.186-1.163 1.957-2.749 2.07-4.515l-2.285-.033c-.21 2.391-2.215 4.266-4.66 4.266zM7.32 12c0-1.583.787-2.981 1.99-3.83L8.14 6.209c-1.404.93-2.445 2.369-2.881 4.035.506.404.83 1.034.83 1.74 0 .704-.324 1.319-.83 1.739.436 1.665 1.477 3.104 2.881 4.034l1.17-1.965C8.107 14.97 7.32 13.574 7.32 12zm-3.48-1.602c-.885 0-1.602.717-1.602 1.602s.717 1.602 1.602 1.602S5.441 12.885 5.441 12s-.716-1.602-1.601-1.602zM12 7.32c2.445 0 4.45 1.875 4.66 4.265l2.285-.034c-.113-1.765-.885-3.35-2.07-4.516-.609.232-1.313.194-1.92-.154-.609-.352-.99-.945-1.095-1.591-.594-.16-1.214-.25-1.86-.25-1.11 0-2.155.26-3.084.72l1.113 1.995c.6-.279 1.268-.435 1.971-.435zm3.279-1.001c.765.442 1.746.181 2.189-.585.441-.765.181-1.746-.588-2.19-.765-.44-1.746-.179-2.189.589-.441.764-.18 1.744.588 2.186z" />
</svg>
